<svg xmlns="http://www.w3.org/2000/svg" width="900" height="460" viewBox="0 0 900 460" font-family="Microsoft YaHei, SimHei, sans-serif">
<rect width="900" height="460" fill="#ffffff"/>
<text x="450" y="32" text-anchor="middle" font-size="18" font-weight="bold" fill="#1f2937">调度算法综合性能对比（绿色为该指标最优）</text><text x="70" y="82" font-size="13" font-weight="bold" fill="#374151">平均 JCT ↓</text><rect x="200" y="90" width="639.7" height="18" fill="#94a3b8" rx="3" opacity="0.85"/><text x="195" y="103" text-anchor="end" font-size="10" fill="#6b7280">FIFO</text><text x="844.7" y="103" font-size="10" fill="#374151" font-weight="normal">2441.2</text><rect x="200" y="112" width="670.0" height="18" fill="#60a5fa" rx="3" opacity="0.85"/><text x="195" y="125" text-anchor="end" font-size="10" fill="#6b7280">BestFit</text><text x="875.0" y="125" font-size="10" fill="#374151" font-weight="normal">2556.7</text><rect x="200" y="134" width="549.0" height="18" fill="#0d9488" rx="3" opacity="0.85"/><text x="195" y="147" text-anchor="end" font-size="10" fill="#6b7280">DRF</text><text x="754.0" y="147" font-size="10" fill="#374151" font-weight="normal">2094.9</text><rect x="200" y="156" width="529.1" height="18" fill="#16a34a" rx="3" opacity="0.85"/><text x="195" y="169" text-anchor="end" font-size="10" fill="#6b7280">SJF</text><text x="734.1" y="169" font-size="10" fill="#374151" font-weight="bold">2018.9</text><text x="70" y="137" font-size="13" font-weight="bold" fill="#374151">中位 JCT ↓</text><rect x="200" y="145" width="602.8" height="18" fill="#94a3b8" rx="3" opacity="0.85"/><text x="195" y="158" text-anchor="end" font-size="10" fill="#6b7280">FIFO</text><text x="807.8" y="158" font-size="10" fill="#374151" font-weight="normal">1720.1</text><rect x="200" y="167" width="670.0" height="18" fill="#60a5fa" rx="3" opacity="0.85"/><text x="195" y="180" text-anchor="end" font-size="10" fill="#6b7280">BestFit</text><text x="875.0" y="180" font-size="10" fill="#374151" font-weight="normal">1911.8</text><rect x="200" y="189" width="275.5" height="18" fill="#0d9488" rx="3" opacity="0.85"/><text x="195" y="202" text-anchor="end" font-size="10" fill="#6b7280">DRF</text><text x="480.5" y="202" font-size="10" fill="#374151" font-weight="normal">786.1</text><rect x="200" y="211" width="250.0" height="18" fill="#16a34a" rx="3" opacity="0.85"/><text x="195" y="224" text-anchor="end" font-size="10" fill="#6b7280">SJF</text><text x="455.0" y="224" font-size="10" fill="#374151" font-weight="bold">713.5</text><text x="70" y="192" font-size="13" font-weight="bold" fill="#374151">P95 JCT ↓</text><rect x="200" y="200" width="577.5" height="18" fill="#16a34a" rx="3" opacity="0.85"/><text x="195" y="213" text-anchor="end" font-size="10" fill="#6b7280">FIFO</text><text x="782.5" y="213" font-size="10" fill="#374151" font-weight="bold">9430.4</text><rect x="200" y="222" width="589.6" height="18" fill="#60a5fa" rx="3" opacity="0.85"/><text x="195" y="235" text-anchor="end" font-size="10" fill="#6b7280">BestFit</text><text x="794.6" y="235" font-size="10" fill="#374151" font-weight="normal">9627.2</text><rect x="200" y="244" width="670.0" height="18" fill="#0d9488" rx="3" opacity="0.85"/><text x="195" y="257" text-anchor="end" font-size="10" fill="#6b7280">DRF</text><text x="875.0" y="257" font-size="10" fill="#374151" font-weight="normal">10940.9</text><rect x="200" y="266" width="643.2" height="18" fill="#f59e0b" rx="3" opacity="0.85"/><text x="195" y="279" text-anchor="end" font-size="10" fill="#6b7280">SJF</text><text x="848.2" y="279" font-size="10" fill="#374151" font-weight="normal">10503.8</text><text x="70" y="247" font-size="13" font-weight="bold" fill="#374151">平均等待 ↓</text><rect x="200" y="255" width="628.3" height="18" fill="#94a3b8" rx="3" opacity="0.85"/><text x="195" y="268" text-anchor="end" font-size="10" fill="#6b7280">FIFO</text><text x="833.3" y="268" font-size="10" fill="#374151" font-weight="normal">1741.9</text><rect x="200" y="277" width="670.0" height="18" fill="#60a5fa" rx="3" opacity="0.85"/><text x="195" y="290" text-anchor="end" font-size="10" fill="#6b7280">BestFit</text><text x="875.0" y="290" font-size="10" fill="#374151" font-weight="normal">1857.4</text><rect x="200" y="299" width="503.4" height="18" fill="#0d9488" rx="3" opacity="0.85"/><text x="195" y="312" text-anchor="end" font-size="10" fill="#6b7280">DRF</text><text x="708.4" y="312" font-size="10" fill="#374151" font-weight="normal">1395.5</text><rect x="200" y="321" width="476.0" height="18" fill="#16a34a" rx="3" opacity="0.85"/><text x="195" y="334" text-anchor="end" font-size="10" fill="#6b7280">SJF</text><text x="681.0" y="334" font-size="10" fill="#374151" font-weight="bold">1319.5</text><text x="70" y="302" font-size="13" font-weight="bold" fill="#374151">GPU 利用率 ↑</text><rect x="200" y="310" width="670.0" height="18" fill="#16a34a" rx="3" opacity="0.85"/><text x="195" y="323" text-anchor="end" font-size="10" fill="#6b7280">FIFO</text><text x="875.0" y="323" font-size="10" fill="#374151" font-weight="bold">94.2%</text><rect x="200" y="332" width="665.7" height="18" fill="#60a5fa" rx="3" opacity="0.85"/><text x="195" y="345" text-anchor="end" font-size="10" fill="#6b7280">BestFit</text><text x="870.7" y="345" font-size="10" fill="#374151" font-weight="normal">93.6%</text><rect x="200" y="354" width="658.6" height="18" fill="#0d9488" rx="3" opacity="0.85"/><text x="195" y="367" text-anchor="end" font-size="10" fill="#6b7280">DRF</text><text x="863.6" y="367" font-size="10" fill="#374151" font-weight="normal">92.6%</text><rect x="200" y="376" width="630.2" height="18" fill="#f59e0b" rx="3" opacity="0.85"/><text x="195" y="389" text-anchor="end" font-size="10" fill="#6b7280">SJF</text><text x="835.2" y="389" font-size="10" fill="#374151" font-weight="normal">88.6%</text><text x="70" y="357" font-size="13" font-weight="bold" fill="#374151">CPU 利用率 ↑</text><rect x="200" y="365" width="670.0" height="18" fill="#16a34a" rx="3" opacity="0.85"/><text x="195" y="378" text-anchor="end" font-size="10" fill="#6b7280">FIFO</text><text x="875.0" y="378" font-size="10" fill="#374151" font-weight="bold">46.4%</text><rect x="200" y="387" width="665.7" height="18" fill="#60a5fa" rx="3" opacity="0.85"/><text x="195" y="400" text-anchor="end" font-size="10" fill="#6b7280">BestFit</text><text x="870.7" y="400" font-size="10" fill="#374151" font-weight="normal">46.1%</text><rect x="200" y="409" width="658.4" height="18" fill="#0d9488" rx="3" opacity="0.85"/><text x="195" y="422" text-anchor="end" font-size="10" fill="#6b7280">DRF</text><text x="863.4" y="422" font-size="10" fill="#374151" font-weight="normal">45.6%</text><rect x="200" y="431" width="631.0" height="18" fill="#f59e0b" rx="3" opacity="0.85"/><text x="195" y="444" text-anchor="end" font-size="10" fill="#6b7280">SJF</text><text x="836.0" y="444" font-size="10" fill="#374151" font-weight="normal">43.7%</text></svg>